<?xml version="1.0" encoding="utf-8"?>
<!-- Generator: Adobe Illustrator 16.0.0, SVG Export Plug-In . SVG Version: 6.00 Build 0)  -->
<!DOCTYPE svg PUBLIC "-//W3C//DTD SVG 1.1//EN" "http://www.w3.org/Graphics/SVG/1.1/DTD/svg11.dtd">
<svg version="1.1" id="Layer_1" xmlns="http://www.w3.org/2000/svg" xmlns:xlink="http://www.w3.org/1999/xlink" x="0px" y="0px"
	 width="68px" height="70px" viewBox="0 0 68 70" enable-background="new 0 0 68 70" xml:space="preserve">
<path fill-rule="evenodd" clip-rule="evenodd" fill="#ff7100" d="M57,29h3v38h-3V29z"/>
<path fill-rule="evenodd" clip-rule="evenodd" fill="#ff7100" d="M3,29h54v3H3V29z"/>
<path fill-rule="evenodd" clip-rule="evenodd" fill="#ff7100" d="M21,21h3v8h-3V21z"/>
<path fill-rule="evenodd" clip-rule="evenodd" fill="#ff7100" d="M24,21h12v3H24V21z"/>
<path fill-rule="evenodd" clip-rule="evenodd" fill="#ff7100" d="M36,21h3v8h-3V21z"/>
<path fill-rule="evenodd" clip-rule="evenodd" fill="#ff7100" d="M15,32h2v35h-2V32z"/>
<path fill-rule="evenodd" clip-rule="evenodd" fill="#ff7100" d="M43,31h2v36h-2V31z"/>
<path fill-rule="evenodd" clip-rule="evenodd" fill="#ff7100" d="M0,29h3v41H0V29z"/>
<path fill-rule="evenodd" clip-rule="evenodd" fill="#ff7100" d="M3,67h57v3H3V67z"/>
<path fill-rule="evenodd" clip-rule="evenodd" fill="#ff7100" d="M45,17h21v4H45V17z"/>
<path fill-rule="evenodd" clip-rule="evenodd" fill="#ff7100" d="M45,10h21v4H45V10z"/>
<path fill-rule="evenodd" clip-rule="evenodd" fill="#ff7100" d="M54,0h3l3,10h-9L54,0z"/>
<path fill-rule="evenodd" clip-rule="evenodd" fill="#ff7100" d="M43.075,5.318l3.16,0.842l1.925,4.682L45,10L43.075,5.318z"/>
<path fill-rule="evenodd" clip-rule="evenodd" fill="#ff7100" d="M67.988,5.006L64.885,5.92l-1.889,5.078l3.102-0.914L67.988,5.006z"/>
</svg>
